<svg width="189" height="105" viewBox="0 0 189 105" fill="none" xmlns="http://www.w3.org/2000/svg">
<path d="M26.75 15C27.65 15 28.3833 15.2667 28.95 15.8C29.5167 16.3333 29.8 17.0333 29.8 17.9C29.8 18.7667 29.5167 19.4667 28.95 20C28.3833 20.5 27.65 20.75 26.75 20.75H18.9V46.95C18.9 47.8167 18.5833 48.55 17.95 49.15C17.3167 49.7167 16.5333 50 15.6 50C14.6667 50 13.9 49.7167 13.3 49.15C12.7 48.55 12.4 47.8167 12.4 46.95V20.75H4.55C3.65 20.75 2.91667 20.4833 2.35 19.95C1.78333 19.4167 1.5 18.7167 1.5 17.85C1.5 17.0167 1.78333 16.3333 2.35 15.8C2.95 15.2667 3.68333 15 4.55 15H26.75ZM51.2184 22.75C52.085 22.75 52.8017 23.0333 53.3684 23.6C53.935 24.1667 54.2184 24.9 54.2184 25.8V46.95C54.2184 47.8167 53.935 48.55 53.3684 49.15C52.8017 49.7167 52.085 50 51.2184 50C50.3517 50 49.635 49.7167 49.0684 49.15C48.535 48.5833 48.2517 47.8667 48.2184 47C47.385 47.9667 46.2517 48.8 44.8184 49.5C43.4184 50.1667 41.935 50.5 40.3684 50.5C38.0684 50.5 35.985 49.9167 34.1184 48.75C32.2517 47.55 30.7684 45.9 29.6684 43.8C28.6017 41.7 28.0684 39.3167 28.0684 36.65C28.0684 33.9833 28.6017 31.6 29.6684 29.5C30.735 27.3667 32.185 25.7167 34.0184 24.55C35.885 23.35 37.935 22.75 40.1684 22.75C41.7684 22.75 43.2684 23.05 44.6684 23.65C46.0684 24.2167 47.2517 24.95 48.2184 25.85V25.8C48.2184 24.9333 48.5017 24.2167 49.0684 23.65C49.635 23.05 50.3517 22.75 51.2184 22.75ZM41.1184 45C43.285 45 45.0517 44.2167 46.4184 42.65C47.785 41.05 48.4684 39.05 48.4684 36.65C48.4684 34.25 47.785 32.25 46.4184 30.65C45.0517 29.05 43.285 28.25 41.1184 28.25C38.985 28.25 37.235 29.05 35.8684 30.65C34.5017 32.25 33.8184 34.25 33.8184 36.65C33.8184 39.05 34.485 41.05 35.8184 42.65C37.185 44.2167 38.9517 45 41.1184 45ZM74.5707 22.75C76.8707 22.75 78.954 23.35 80.8207 24.55C82.6874 25.7167 84.154 27.35 85.2207 29.45C86.3207 31.55 86.8707 33.9333 86.8707 36.6C86.8707 39.2667 86.3374 41.6667 85.2707 43.8C84.204 45.9 82.7374 47.55 80.8707 48.75C79.0374 49.9167 77.004 50.5 74.7707 50.5C73.1707 50.5 71.654 50.1833 70.2207 49.55C68.8207 48.8833 67.654 48.0833 66.7207 47.15V47.45C66.7207 48.3167 66.4374 49.05 65.8707 49.65C65.304 50.2167 64.5874 50.5 63.7207 50.5C62.854 50.5 62.1374 50.2167 61.5707 49.65C61.004 49.0833 60.7207 48.35 60.7207 47.45V16.05C60.7207 15.1833 61.004 14.4667 61.5707 13.9C62.1374 13.3 62.854 13 63.7207 13C64.5874 13 65.304 13.3 65.8707 13.9C66.4374 14.4667 66.7207 15.1833 66.7207 16.05V26.5C67.5207 25.5 68.6374 24.6333 70.0707 23.9C71.504 23.1333 73.004 22.75 74.5707 22.75ZM73.8207 45C75.954 45 77.704 44.2 79.0707 42.6C80.4374 41 81.1207 39 81.1207 36.6C81.1207 34.2 80.4374 32.2167 79.0707 30.65C77.7374 29.05 75.9874 28.25 73.8207 28.25C71.654 28.25 69.8874 29.05 68.5207 30.65C67.154 32.2167 66.4707 34.2 66.4707 36.6C66.4707 39 67.154 41 68.5207 42.6C69.8874 44.2 71.654 45 73.8207 45ZM98.373 46.95C98.373 47.8167 98.073 48.55 97.473 49.15C96.9064 49.7167 96.1897 50 95.323 50C94.4897 50 93.7897 49.7167 93.223 49.15C92.6564 48.55 92.373 47.8167 92.373 46.95V16.05C92.373 15.1833 92.6564 14.4667 93.223 13.9C93.823 13.3 94.5564 13 95.423 13C96.2564 13 96.9564 13.3 97.523 13.9C98.0897 14.4667 98.373 15.1833 98.373 16.05V46.95ZM128.861 36C128.828 36.8 128.511 37.45 127.911 37.95C127.311 38.45 126.611 38.7 125.811 38.7H109.311C109.711 40.6667 110.628 42.2167 112.061 43.35C113.495 44.45 115.111 45 116.911 45C118.278 45 119.345 44.8833 120.111 44.65C120.878 44.3833 121.478 44.1167 121.911 43.85C122.378 43.55 122.695 43.35 122.861 43.25C123.461 42.95 124.028 42.8 124.561 42.8C125.261 42.8 125.861 43.05 126.361 43.55C126.861 44.05 127.111 44.6333 127.111 45.3C127.111 46.2 126.645 47.0167 125.711 47.75C124.778 48.5167 123.528 49.1667 121.961 49.7C120.395 50.2333 118.811 50.5 117.211 50.5C114.411 50.5 111.961 49.9167 109.861 48.75C107.795 47.5833 106.195 45.9833 105.061 43.95C103.928 41.8833 103.361 39.5667 103.361 37C103.361 34.1333 103.961 31.6167 105.161 29.45C106.361 27.2833 107.945 25.6333 109.911 24.5C111.878 23.3333 113.978 22.75 116.211 22.75C118.411 22.75 120.478 23.35 122.411 24.55C124.378 25.75 125.945 27.3667 127.111 29.4C128.278 31.4333 128.861 33.6333 128.861 36ZM116.211 28.25C112.345 28.25 110.061 30.0667 109.361 33.7H122.461V33.35C122.328 31.95 121.645 30.75 120.411 29.75C119.178 28.75 117.778 28.25 116.211 28.25Z" fill="black"/>
<path d="M90.1 68.95C90.9333 68.95 91.65 69.25 92.25 69.85C92.8833 70.4167 93.2 71.1333 93.2 72V100.95C93.2 101.817 92.9167 102.55 92.35 103.15C91.7833 103.717 91.0333 104 90.1 104C89.1667 104 88.4 103.717 87.8 103.15C87.2333 102.583 86.95 101.85 86.95 100.95V80.8L78.7 93.4C78.3667 93.8 77.9833 94.1333 77.55 94.4C77.1167 94.6333 76.6667 94.7333 76.2 94.7C75.7667 94.7333 75.3333 94.6333 74.9 94.4C74.4667 94.1333 74.0833 93.8 73.75 93.4L65.5 80.35V100.95C65.5 101.85 65.2333 102.583 64.7 103.15C64.1667 103.717 63.4667 104 62.6 104C61.7667 104 61.0833 103.717 60.55 103.15C60.0167 102.55 59.75 101.817 59.75 100.95V72C59.75 71.1667 60.05 70.45 60.65 69.85C61.2833 69.25 62.0333 68.95 62.9 68.95C63.4 68.95 63.9 69.0833 64.4 69.35C64.9 69.5833 65.2833 69.9 65.55 70.3L76.45 87.05L87.65 70.3C87.9167 69.9 88.2667 69.5833 88.7 69.35C89.1667 69.0833 89.6333 68.95 90.1 68.95ZM121.867 76.75C122.733 76.75 123.45 77.0333 124.017 77.6C124.583 78.1667 124.867 78.9 124.867 79.8V100.95C124.867 101.817 124.583 102.55 124.017 103.15C123.45 103.717 122.733 104 121.867 104C121 104 120.283 103.717 119.717 103.15C119.183 102.583 118.9 101.867 118.867 101C118.033 101.967 116.9 102.8 115.467 103.5C114.067 104.167 112.583 104.5 111.017 104.5C108.717 104.5 106.633 103.917 104.767 102.75C102.9 101.55 101.417 99.9 100.317 97.8C99.2501 95.7 98.7168 93.3167 98.7168 90.65C98.7168 87.9833 99.2501 85.6 100.317 83.5C101.383 81.3667 102.833 79.7167 104.667 78.55C106.533 77.35 108.583 76.75 110.817 76.75C112.417 76.75 113.917 77.05 115.317 77.65C116.717 78.2167 117.9 78.95 118.867 79.85V79.8C118.867 78.9333 119.15 78.2167 119.717 77.65C120.283 77.05 121 76.75 121.867 76.75ZM111.767 99C113.933 99 115.7 98.2167 117.067 96.65C118.433 95.05 119.117 93.05 119.117 90.65C119.117 88.25 118.433 86.25 117.067 84.65C115.7 83.05 113.933 82.25 111.767 82.25C109.633 82.25 107.883 83.05 106.517 84.65C105.15 86.25 104.467 88.25 104.467 90.65C104.467 93.05 105.133 95.05 106.467 96.65C107.833 98.2167 109.6 99 111.767 99ZM144.269 98.35C144.736 98.35 145.152 98.5833 145.519 99.05C145.919 99.4833 146.119 100.067 146.119 100.8C146.119 101.7 145.619 102.467 144.619 103.1C143.652 103.7 142.552 104 141.319 104C139.252 104 137.502 103.567 136.069 102.7C134.669 101.8 133.969 99.9167 133.969 97.05V83.25H131.669C130.869 83.25 130.202 82.9833 129.669 82.45C129.136 81.9167 128.869 81.25 128.869 80.45C128.869 79.6833 129.136 79.05 129.669 78.55C130.202 78.0167 130.869 77.75 131.669 77.75H133.969V74.55C133.969 73.6833 134.252 72.9667 134.819 72.4C135.419 71.8 136.152 71.5 137.019 71.5C137.852 71.5 138.552 71.8 139.119 72.4C139.686 72.9667 139.969 73.6833 139.969 74.55V77.75H143.519C144.319 77.75 144.986 78.0167 145.519 78.55C146.052 79.0833 146.319 79.75 146.319 80.55C146.319 81.3167 146.052 81.9667 145.519 82.5C144.986 83 144.319 83.25 143.519 83.25H139.969V96.8C139.969 97.5 140.152 98.0167 140.519 98.35C140.886 98.65 141.386 98.8 142.019 98.8C142.286 98.8 142.652 98.7333 143.119 98.6C143.519 98.4333 143.902 98.35 144.269 98.35ZM165.878 76.75C169.178 76.75 171.461 77.7667 172.728 79.8C173.995 81.8 174.628 84.5833 174.628 88.15V100.95C174.628 101.817 174.345 102.55 173.778 103.15C173.211 103.717 172.495 104 171.628 104C170.761 104 170.045 103.717 169.478 103.15C168.911 102.55 168.628 101.817 168.628 100.95V88.15C168.628 86.3167 168.261 84.8833 167.528 83.85C166.828 82.7833 165.578 82.25 163.778 82.25C161.911 82.25 160.445 82.8167 159.378 83.95C158.345 85.05 157.828 86.45 157.828 88.15V100.95C157.828 101.817 157.545 102.55 156.978 103.15C156.411 103.717 155.695 104 154.828 104C153.961 104 153.245 103.717 152.678 103.15C152.111 102.55 151.828 101.817 151.828 100.95V70.05C151.828 69.1833 152.111 68.4667 152.678 67.9C153.245 67.3 153.961 67 154.828 67C155.695 67 156.411 67.3 156.978 67.9C157.545 68.4667 157.828 69.1833 157.828 70.05V81.1C158.728 79.9 159.861 78.8833 161.228 78.05C162.628 77.1833 164.178 76.75 165.878 76.75Z" fill="#0545AF"/>
</svg>
