<svg width="37" height="38" viewBox="0 0 37 38" fill="none" xmlns="http://www.w3.org/2000/svg">
<path d="M12.75 6.45C12.75 4.95667 13.2867 3.67333 14.36 2.6C15.4333 1.52666 16.7167 0.989997 18.21 0.989997C19.7033 0.989997 20.9633 1.52666 21.99 2.6C23.0633 3.67333 23.6 4.95667 23.6 6.45C23.6 7.89667 23.0633 9.15667 21.99 10.23C20.9633 11.3033 19.7033 11.84 18.21 11.84C16.7167 11.84 15.4333 11.3267 14.36 10.3C13.2867 9.22666 12.75 7.94333 12.75 6.45ZM4.63 22.9C3.46333 22.9 2.48333 22.5267 1.69 21.78C0.896667 20.9867 0.5 20.0533 0.5 18.98C0.5 17.9067 0.896667 17.02 1.69 16.32C2.48333 15.5733 3.46333 15.2 4.63 15.2H32.7C33.8667 15.2 34.8467 15.5733 35.64 16.32C36.4333 17.02 36.83 17.9067 36.83 18.98C36.83 20.0533 36.4333 20.9867 35.64 21.78C34.8467 22.5267 33.8667 22.9 32.7 22.9H4.63ZM12.75 31.86C12.75 30.3667 13.2867 29.0833 14.36 28.01C15.4333 26.9367 16.7167 26.4 18.21 26.4C19.7033 26.4 20.9633 26.9367 21.99 28.01C23.0633 29.0833 23.6 30.3667 23.6 31.86C23.6 33.3067 23.0633 34.5667 21.99 35.64C20.9633 36.7133 19.7033 37.25 18.21 37.25C16.7167 37.25 15.4333 36.7367 14.36 35.71C13.2867 34.6367 12.75 33.3533 12.75 31.86Z" fill="white"/>
</svg>
