<svg width="33" height="39" viewBox="0 0 33 39" fill="none" xmlns="http://www.w3.org/2000/svg">
<path d="M31.13 31.35C31.7367 32.0967 32.04 32.9367 32.04 33.87C32.04 35.0367 31.5967 36.04 30.71 36.88C29.8233 37.72 28.8433 38.14 27.77 38.14C26.4167 38.14 25.2733 37.5333 24.34 36.32L15.94 25.89L7.75 36.32C7.33 36.88 6.81667 37.3233 6.21 37.65C5.65 37.93 5.04333 38.07 4.39 38.07C3.41 38.07 2.47667 37.6967 1.59 36.95C0.703333 36.2033 0.26 35.34 0.26 34.36C0.26 33.4267 0.61 32.54 1.31 31.7L11.04 19.8L0.96 7.27C0.353333 6.52333 0.05 5.68333 0.05 4.75C0.05 3.58333 0.47 2.60333 1.31 1.81C2.19667 0.969998 3.2 0.549998 4.32 0.549998C5.67333 0.549998 6.81667 1.13333 7.75 2.3L16.36 13.01L24.34 2.44C25.2267 1.18 26.3467 0.549998 27.7 0.549998C28.82 0.549998 29.7533 0.946665 30.5 1.74C31.2933 2.48666 31.69 3.35 31.69 4.33C31.69 5.35666 31.3633 6.26666 30.71 7.06L21.05 18.82L31.13 31.35Z" fill="white"/>
</svg>
