<svg width="503" height="473" viewBox="0 0 503 473" fill="none" xmlns="http://www.w3.org/2000/svg">
<path d="M100.6 130C103.8 130 106.467 131.067 108.6 133.2C110.733 135.2 111.8 137.8 111.8 141C111.8 144.2 110.733 146.867 108.6 149C106.467 151 103.8 152 100.6 152H72.6V178.2C72.6 181.933 71.3333 185 68.8 187.4C66.4 189.8 63.3333 191 59.6 191C55.8667 191 52.7333 189.8 50.2 187.4C47.8 185 46.6 181.933 46.6 178.2V152H19.2C16 152 13.3333 150.933 11.2 148.8C9.06667 146.667 8 144 8 140.8C8 137.6 9.06667 135 11.2 133C13.3333 131 16 130 19.2 130H46.6V100.2C46.6 96.4667 47.8 93.4 50.2 91C52.7333 88.6 55.9333 87.4 59.8 87.4C63.5333 87.4 66.6 88.6 69 91C71.4 93.4 72.6 96.4667 72.6 100.2V130H100.6Z" fill="#0545AF"/>
<path d="M42.42 379.66C38.6067 379.66 35.38 378.413 32.74 375.92C30.2467 373.427 29 370.273 29 366.46C29 362.793 30.2467 359.713 32.74 357.22C35.38 354.727 38.6067 353.48 42.42 353.48H80.7C84.5133 353.48 87.6667 354.8 90.16 357.44C92.8 359.933 94.12 363.087 94.12 366.9C94.12 370.567 92.8 373.647 90.16 376.14C87.6667 378.487 84.5133 379.66 80.7 379.66H42.42Z" fill="#0545AF"/>
<path d="M391.62 170.9C393.18 172.82 393.96 174.98 393.96 177.38C393.96 180.38 392.82 182.96 390.54 185.12C388.26 187.28 385.74 188.36 382.98 188.36C379.5 188.36 376.56 186.8 374.16 183.68L352.56 156.86L331.5 183.68C330.42 185.12 329.1 186.26 327.54 187.1C326.1 187.82 324.54 188.18 322.86 188.18C320.34 188.18 317.94 187.22 315.66 185.3C313.38 183.38 312.24 181.16 312.24 178.64C312.24 176.24 313.14 173.96 314.94 171.8L339.96 141.2L314.04 108.98C312.48 107.06 311.7 104.9 311.7 102.5C311.7 99.5 312.78 96.98 314.94 94.94C317.22 92.78 319.8 91.7 322.68 91.7C326.16 91.7 329.1 93.2 331.5 96.2L353.64 123.74L374.16 96.56C376.44 93.32 379.32 91.7 382.8 91.7C385.68 91.7 388.08 92.72 390 94.76C392.04 96.68 393.06 98.9 393.06 101.42C393.06 104.06 392.22 106.4 390.54 108.44L365.7 138.68L391.62 170.9Z" fill="#0545AF"/>
<path d="M336.5 331.3C336.5 327.46 337.88 324.16 340.64 321.4C343.4 318.64 346.7 317.26 350.54 317.26C354.38 317.26 357.62 318.64 360.26 321.4C363.02 324.16 364.4 327.46 364.4 331.3C364.4 335.02 363.02 338.26 360.26 341.02C357.62 343.78 354.38 345.16 350.54 345.16C346.7 345.16 343.4 343.84 340.64 341.2C337.88 338.44 336.5 335.14 336.5 331.3ZM315.62 373.6C312.62 373.6 310.1 372.64 308.06 370.72C306.02 368.68 305 366.28 305 363.52C305 360.76 306.02 358.48 308.06 356.68C310.1 354.76 312.62 353.8 315.62 353.8H387.8C390.8 353.8 393.32 354.76 395.36 356.68C397.4 358.48 398.42 360.76 398.42 363.52C398.42 366.28 397.4 368.68 395.36 370.72C393.32 372.64 390.8 373.6 387.8 373.6H315.62ZM336.5 396.64C336.5 392.8 337.88 389.5 340.64 386.74C343.4 383.98 346.7 382.6 350.54 382.6C354.38 382.6 357.62 383.98 360.26 386.74C363.02 389.5 364.4 392.8 364.4 396.64C364.4 400.36 363.02 403.6 360.26 406.36C357.62 409.12 354.38 410.5 350.54 410.5C346.7 410.5 343.4 409.18 340.64 406.54C337.88 403.78 336.5 400.48 336.5 396.64Z" fill="#0545AF"/>
</svg>
