<svg width="38" height="37" viewBox="0 0 38 37" fill="none" xmlns="http://www.w3.org/2000/svg">
<path d="M33.21 15.5C34.33 15.5 35.2633 15.8733 36.01 16.62C36.7567 17.32 37.13 18.23 37.13 19.35C37.13 20.47 36.7567 21.4033 36.01 22.15C35.2633 22.85 34.33 23.2 33.21 23.2H23.41V32.37C23.41 33.6767 22.9667 34.75 22.08 35.59C21.24 36.43 20.1667 36.85 18.86 36.85C17.5533 36.85 16.4567 36.43 15.57 35.59C14.73 34.75 14.31 33.6767 14.31 32.37V23.2H4.72C3.6 23.2 2.66667 22.8267 1.92 22.08C1.17333 21.3333 0.8 20.4 0.8 19.28C0.8 18.16 1.17333 17.25 1.92 16.55C2.66667 15.85 3.6 15.5 4.72 15.5H14.31V5.07C14.31 3.76333 14.73 2.69 15.57 1.85C16.4567 1.01 17.5767 0.589998 18.93 0.589998C20.2367 0.589998 21.31 1.01 22.15 1.85C22.99 2.69 23.41 3.76333 23.41 5.07V15.5H33.21Z" fill="white"/>
</svg>
